<?xml version="1.0" encoding="utf-8"?>
<!-- Generator: Adobe Illustrator 23.0.4, SVG Export Plug-In . SVG Version: 6.00 Build 0)  -->
<svg version="1.1" id="レイヤー_1" xmlns="http://www.w3.org/2000/svg" xmlns:xlink="http://www.w3.org/1999/xlink" x="0px"
	 y="0px" viewBox="0 0 24 24" style="enable-background:new 0 0 24 24;" xml:space="preserve">
<title>favorite_fill</title>
<path style="fill:#63C8C7" d="M13.9,19h1.8v0.1l-0.8,0.7c-0.8,0.6-1.7,1.3-2.8,2.1h-0.1c-5.4-4-7.1-5.3-9.8-8c-2.7-2.7-2.7-8,0.4-10.2
	c3-2.1,6.7-1.2,9.4,1.5h0.1c2.7-2.7,6.3-3.6,9.4-1.5c3.2,2.1,3.1,7.5,0.4,10.2l-0.8,0.7h-1v-1.8c0-1.2-1-2.2-2.2-2.2
	c-1.2,0-2.2,1-2.2,2.2v1.8h-1.8c-1.2,0-2.2,1-2.2,2.2C11.7,18,12.7,19,13.9,19z M21.9,16.3h-3.5v-3.5c0-0.3-0.2-0.6-0.6-0.6
	c-0.3,0-0.6,0.2-0.6,0.6v3.5h-3.5c-0.3,0-0.6,0.2-0.6,0.6c0,0.3,0.2,0.6,0.6,0.6h3.5v3.5c0,0,0,0,0,0c0,0.3,0.2,0.5,0.6,0.5
	c0,0,0,0,0,0c0.3,0,0.5-0.2,0.5-0.6v-3.5h3.5c0.3,0,0.6-0.2,0.6-0.6C22.5,16.5,22.2,16.3,21.9,16.3z"/>
</svg>
